<svg xmlns="http://www.w3.org/2000/svg" version="1.1" xmlns:xlink="http://www.w3.org/1999/xlink" xmlns:svgjs="http://svgjs.dev/svgjs" width="2000" height="666" viewBox="0 0 2000 666"><g transform="matrix(1,0,0,1,-1.2121212121212466,0.7187573222012702)"><svg viewBox="0 0 396 132" data-background-color="#ffffff" preserveAspectRatio="xMidYMid meet" height="666" width="2000" xmlns="http://www.w3.org/2000/svg" xmlns:xlink="http://www.w3.org/1999/xlink"><g id="tight-bounds" transform="matrix(1,0,0,1,0.2400000000000091,-0.1424564062020579)"><svg viewBox="0 0 395.52 132.28491281240412" height="132.28491281240412" width="395.52"><g><svg viewBox="0 0 397.4975999999999 132.94633737646612" height="132.28491281240412" width="395.52"><g><rect width="397.4975999999999" height="4.071970723055722" x="0" y="73.06146263306358" fill="#ff585f" opacity="1" stroke-width="0" stroke="transparent" fill-opacity="1" class="rect-yte-0" data-fill-palette-color="secondary" rx="1%" id="yte-0" data-palette-color="#ff585f"></rect></g><g transform="matrix(1,0,0,1,0.9887999999999693,87.79304257877827)"><svg viewBox="0 0 395.52 45.153294797687856" height="45.153294797687856" width="395.52"><g id="textblocktransform"><svg viewBox="0 0 395.52 45.153294797687856" height="45.153294797687856" width="395.52" id="textblock"><g><svg viewBox="0 0 395.52 45.153294797687856" height="45.153294797687856" width="395.52"><g transform="matrix(1,0,0,1,0,0)"><svg width="395.52" viewBox="0.8 -39 345.97999999999996 39.5" height="45.153294797687856" data-palette-color="#aaaaaa"><path d="M36.1-11.75L35.5 0 0.8 0 0.8-0.2 27.1-36.4 13.4-36.4Q9.85-36.4 8.1-34.8 6.35-33.2 5.65-29.3L5.65-29.3 3.8-29.3 4.55-38.5 35-38.5 35-38.3 8.95-2.3 24.45-2.3Q27-2.3 28.65-2.68 30.3-3.05 31.33-4.1 32.35-5.15 32.93-6.98 33.5-8.8 33.95-11.75L33.95-11.75 36.1-11.75ZM57.8-12.4L42.35-12.4 42.35-16.55 57.8-16.55 57.8-12.4ZM95.2-35.4L96.1-38.5 97.5-38.5 97.95-27 96.1-27Q95-31.4 91.85-33.9 88.7-36.4 84.25-36.4L84.25-36.4Q81.2-36.4 78.8-35.2 76.4-34 74.75-31.75 73.1-29.5 72.22-26.25 71.35-23 71.35-18.9L71.35-18.9Q71.35-10.85 74.7-6.53 78.05-2.2 84.4-2.2L84.4-2.2Q94.05-2.2 96.8-12.45L96.8-12.45 98.85-12.45 98.85 0 97.1 0 95.95-3.95Q90.7 0.5 83.25 0.5L83.25 0.5Q79 0.5 75.57-0.85 72.15-2.2 69.72-4.67 67.3-7.15 65.97-10.7 64.65-14.25 64.65-18.6L64.65-18.6Q64.65-23.15 66.05-26.9 67.45-30.65 69.97-33.35 72.5-36.05 76.02-37.52 79.55-39 83.8-39L83.8-39Q86.8-39 89.45-38.15 92.1-37.3 95.2-35.4L95.2-35.4ZM117.99-27L117.99-27Q120.84-27 123.39-25.98 125.94-24.95 127.87-23.15 129.79-21.35 130.92-18.88 132.04-16.4 132.04-13.45L132.04-13.45Q132.04-10.4 130.92-7.85 129.79-5.3 127.87-3.45 125.94-1.6 123.39-0.55 120.84 0.5 117.99 0.5L117.99 0.5Q115.19 0.5 112.67-0.53 110.14-1.55 108.24-3.4 106.34-5.25 105.24-7.83 104.14-10.4 104.14-13.45L104.14-13.45Q104.14-16.4 105.24-18.9 106.34-21.4 108.24-23.2 110.14-25 112.67-26 115.19-27 117.99-27ZM117.99-24.6L117.99-24.6Q116.14-24.6 114.62-23.8 113.09-23 112.02-21.53 110.94-20.05 110.37-17.98 109.79-15.9 109.79-13.4L109.79-13.4Q109.79-10.8 110.37-8.7 110.94-6.6 112.02-5.13 113.09-3.65 114.59-2.85 116.09-2.05 117.99-2.05L117.99-2.05Q119.89-2.05 121.44-2.85 122.99-3.65 124.09-5.15 125.19-6.65 125.79-8.75 126.39-10.85 126.39-13.4L126.39-13.4Q126.39-15.9 125.79-17.95 125.19-20 124.09-21.48 122.99-22.95 121.44-23.78 119.89-24.6 117.99-24.6ZM145.49-14.35L145.49-8Q145.49-5.9 145.59-4.7 145.69-3.5 146.12-2.88 146.54-2.25 147.34-2.05 148.14-1.85 149.59-1.75L149.59-1.75 149.59 0 136.29 0 136.29-1.75Q137.74-1.85 138.59-2.05 139.44-2.25 139.89-2.85 140.34-3.45 140.47-4.58 140.59-5.7 140.59-7.6L140.59-7.6 140.59-14Q140.59-16.85 140.51-18.75 140.44-20.65 140.24-21.35L140.24-21.35Q140.09-22 139.89-22.38 139.69-22.75 139.24-22.98 138.79-23.2 138.06-23.28 137.34-23.35 136.19-23.35L136.19-23.35 136.19-25.1 144.34-27 144.99-22 145.24-22Q147.49-24.55 149.97-25.78 152.44-27 155.44-27L155.44-27Q158.59-27 160.74-25.73 162.89-24.45 163.74-22.05L163.74-22.05 163.94-22.05Q165.79-24.4 168.44-25.7 171.09-27 174.09-27L174.09-27Q176.44-27 178.37-26.23 180.29-25.45 181.29-24.1L181.29-24.1Q182.19-22.95 182.56-21.08 182.94-19.2 182.94-15.95L182.94-15.95 182.94-8Q182.94-5.95 183.06-4.75 183.19-3.55 183.59-2.9 183.99-2.25 184.81-2.05 185.64-1.85 187.09-1.75L187.09-1.75 187.09 0 173.79 0 173.79-1.75Q175.19-1.8 176.04-2.02 176.89-2.25 177.34-2.88 177.79-3.5 177.91-4.6 178.04-5.7 178.04-7.6L178.04-7.6 178.04-13.9Q178.04-16.75 177.74-18.73 177.44-20.7 176.74-21.93 176.04-23.15 174.91-23.7 173.79-24.25 172.19-24.25L172.19-24.25Q169.99-24.25 168.06-23.03 166.14-21.8 165.04-19.75L165.04-19.75Q164.79-19.25 164.62-18.78 164.44-18.3 164.34-17.73 164.24-17.15 164.22-16.35 164.19-15.55 164.19-14.35L164.19-14.35 164.19-8Q164.19-5.95 164.29-4.75 164.39-3.55 164.81-2.9 165.24-2.25 166.09-2.05 166.94-1.85 168.39-1.75L168.39-1.75 168.39 0 155.09 0 155.09-1.75Q156.49-1.85 157.34-2.05 158.19-2.25 158.62-2.85 159.04-3.45 159.16-4.58 159.29-5.7 159.29-7.6L159.29-7.6 159.29-13.9Q159.29-16.8 158.99-18.78 158.69-20.75 158.01-21.98 157.34-23.2 156.24-23.73 155.14-24.25 153.54-24.25L153.54-24.25Q151.29-24.25 149.31-23.03 147.34-21.8 146.34-19.75L146.34-19.75Q146.09-19.25 145.91-18.78 145.74-18.3 145.64-17.73 145.54-17.15 145.51-16.35 145.49-15.55 145.49-14.35L145.49-14.35ZM199.14-14.35L199.14-8Q199.14-5.9 199.24-4.7 199.34-3.5 199.76-2.88 200.19-2.25 200.99-2.05 201.79-1.85 203.24-1.75L203.24-1.75 203.24 0 189.94 0 189.94-1.75Q191.39-1.85 192.24-2.05 193.09-2.25 193.54-2.85 193.99-3.45 194.11-4.58 194.24-5.7 194.24-7.6L194.24-7.6 194.24-14Q194.24-16.85 194.16-18.75 194.09-20.65 193.89-21.35L193.89-21.35Q193.74-22 193.54-22.38 193.34-22.75 192.89-22.98 192.44-23.2 191.71-23.28 190.99-23.35 189.84-23.35L189.84-23.35 189.84-25.1 197.99-27 198.64-22 198.89-22Q201.14-24.55 203.61-25.78 206.09-27 209.09-27L209.09-27Q212.24-27 214.39-25.73 216.54-24.45 217.39-22.05L217.39-22.05 217.59-22.05Q219.44-24.4 222.09-25.7 224.74-27 227.74-27L227.74-27Q230.09-27 232.01-26.23 233.94-25.45 234.94-24.1L234.94-24.1Q235.84-22.95 236.21-21.08 236.59-19.2 236.59-15.95L236.59-15.95 236.59-8Q236.59-5.95 236.71-4.75 236.84-3.55 237.24-2.9 237.64-2.25 238.46-2.05 239.29-1.85 240.74-1.75L240.74-1.75 240.74 0 227.44 0 227.44-1.75Q228.84-1.8 229.69-2.02 230.54-2.25 230.99-2.88 231.44-3.5 231.56-4.6 231.69-5.7 231.69-7.6L231.69-7.6 231.69-13.9Q231.69-16.75 231.39-18.73 231.09-20.7 230.39-21.93 229.69-23.15 228.56-23.7 227.44-24.25 225.84-24.25L225.84-24.25Q223.64-24.25 221.71-23.03 219.79-21.8 218.69-19.75L218.69-19.75Q218.44-19.25 218.26-18.78 218.09-18.3 217.99-17.73 217.89-17.15 217.86-16.35 217.84-15.55 217.84-14.35L217.84-14.35 217.84-8Q217.84-5.95 217.94-4.75 218.04-3.55 218.46-2.9 218.89-2.25 219.74-2.05 220.59-1.85 222.04-1.75L222.04-1.75 222.04 0 208.74 0 208.74-1.75Q210.14-1.85 210.99-2.05 211.84-2.25 212.26-2.85 212.69-3.45 212.81-4.58 212.94-5.7 212.94-7.6L212.94-7.6 212.94-13.9Q212.94-16.8 212.64-18.78 212.34-20.75 211.66-21.98 210.99-23.2 209.89-23.73 208.79-24.25 207.19-24.25L207.19-24.25Q204.94-24.25 202.96-23.03 200.99-21.8 199.99-19.75L199.99-19.75Q199.74-19.25 199.56-18.78 199.39-18.3 199.29-17.73 199.19-17.15 199.16-16.35 199.14-15.55 199.14-14.35L199.14-14.35ZM266.29-6.05L267.84-4.65Q263.59 0.5 257.29 0.5L257.29 0.5Q254.34 0.5 251.94-0.48 249.54-1.45 247.81-3.23 246.09-5 245.14-7.48 244.19-9.95 244.19-12.95L244.19-12.95Q244.19-16 245.19-18.6 246.19-21.2 248.01-23.05 249.84-24.9 252.36-25.95 254.89-27 257.88-27L257.88-27Q262.74-27 265.38-24.38 268.04-21.75 268.04-16.85L268.04-16.85Q268.04-16.15 267.76-16 267.49-15.85 266.49-15.85L266.49-15.85 250.04-15.85Q249.94-15.45 249.89-14.88 249.84-14.3 249.84-13.6L249.84-13.6Q249.84-11 250.46-8.88 251.09-6.75 252.26-5.25 253.44-3.75 255.06-2.93 256.69-2.1 258.69-2.1L258.69-2.1Q260.79-2.1 262.59-3.03 264.38-3.95 266.29-6.05L266.29-6.05ZM250.39-18.15L259.59-18.15Q260.59-18.15 261.19-18.2 261.79-18.25 262.09-18.4 262.38-18.55 262.49-18.82 262.59-19.1 262.59-19.55L262.59-19.55Q262.59-21.85 261.11-23.23 259.63-24.6 257.09-24.6L257.09-24.6Q251.69-24.6 250.39-18.15L250.39-18.15ZM281.48-9.65L281.48-7.95Q281.48-5.9 281.58-4.7 281.68-3.5 282.11-2.88 282.53-2.25 283.33-2.05 284.13-1.85 285.58-1.75L285.58-1.75 285.58 0 272.28 0 272.28-1.75Q273.73-1.8 274.58-2.02 275.43-2.25 275.88-2.85 276.33-3.45 276.46-4.58 276.58-5.7 276.58-7.6L276.58-7.6 276.58-13.45Q276.58-16.85 276.51-18.75 276.43-20.65 276.01-21.55 275.58-22.45 274.68-22.63 273.78-22.8 272.18-22.8L272.18-22.8 272.18-24.55 280.93-26.45 281.63-20.25 281.83-20.25Q282.48-21.75 283.46-23 284.43-24.25 285.58-25.13 286.73-26 287.98-26.5 289.23-27 290.53-27L290.53-27Q292.13-27 293.06-26.23 293.98-25.45 293.98-24.15L293.98-24.15Q293.98-22.95 293.23-22.28 292.48-21.6 291.08-21.6L291.08-21.6Q290.28-21.6 289.73-21.8 289.18-22 288.76-22.23 288.33-22.45 287.96-22.65 287.58-22.85 287.13-22.85L287.13-22.85Q285.78-22.85 284.43-21.13 283.08-19.4 282.33-16.75L282.33-16.75Q281.93-15.3 281.71-13.48 281.48-11.65 281.48-9.65L281.48-9.65ZM317.48-5.6L318.98-4.15Q317.18-1.95 314.33-0.73 311.48 0.5 308.18 0.5L308.18 0.5Q305.53 0.5 303.31-0.48 301.08-1.45 299.48-3.23 297.88-5 297-7.5 296.13-10 296.13-13.05L296.13-13.05Q296.13-16.25 297.13-18.82 298.13-21.4 299.95-23.23 301.78-25.05 304.36-26.03 306.93-27 310.03-27L310.03-27Q311.98-27 313.58-26.68 315.18-26.35 316.36-25.78 317.53-25.2 318.18-24.38 318.83-23.55 318.83-22.6L318.83-22.6Q318.83-21.6 318.18-21.05 317.53-20.5 316.38-20.5L316.38-20.5Q315.48-20.5 314.88-20.88 314.28-21.25 313.33-22.55L313.33-22.55Q312.33-23.7 311.41-24.18 310.48-24.65 309.03-24.65L309.03-24.65Q305.48-24.65 303.66-21.9 301.83-19.15 301.83-13.8L301.83-13.8Q301.83-8.05 303.86-5.08 305.88-2.1 309.78-2.1L309.78-2.1Q311.88-2.1 313.73-2.93 315.58-3.75 317.48-5.6L317.48-5.6ZM345.03-6.05L346.58-4.65Q342.33 0.5 336.03 0.5L336.03 0.5Q333.08 0.5 330.68-0.48 328.28-1.45 326.55-3.23 324.83-5 323.88-7.48 322.93-9.95 322.93-12.95L322.93-12.95Q322.93-16 323.93-18.6 324.93-21.2 326.75-23.05 328.58-24.9 331.1-25.95 333.63-27 336.63-27L336.63-27Q341.48-27 344.13-24.38 346.78-21.75 346.78-16.85L346.78-16.85Q346.78-16.15 346.5-16 346.23-15.85 345.23-15.85L345.23-15.85 328.78-15.85Q328.68-15.45 328.63-14.88 328.58-14.3 328.58-13.6L328.58-13.6Q328.58-11 329.2-8.88 329.83-6.75 331-5.25 332.18-3.75 333.8-2.93 335.43-2.1 337.43-2.1L337.43-2.1Q339.53-2.1 341.33-3.03 343.13-3.95 345.03-6.05L345.03-6.05ZM329.13-18.15L338.33-18.15Q339.33-18.15 339.93-18.2 340.53-18.25 340.83-18.4 341.13-18.55 341.23-18.82 341.33-19.1 341.33-19.55L341.33-19.55Q341.33-21.85 339.85-23.23 338.38-24.6 335.83-24.6L335.83-24.6Q330.43-24.6 329.13-18.15L329.13-18.15Z" opacity="1" transform="matrix(1,0,0,1,0,0)" fill="#aaaaaa" class="wordmark-text-0" data-fill-palette-color="primary" id="text-0"></path></svg></g></svg></g></svg></g></svg></g><g transform="matrix(1,0,0,1,159.54787329479765,0)"><svg viewBox="0 0 78.40185341040461 62.40185341040462" height="62.40185341040462" width="78.40185341040461"><g><svg xmlns="http://www.w3.org/2000/svg" xml:space="preserve" viewBox="11.665000000000006 11.664999999999992 115.669 115.66900000000001" x="8" y="0" height="62.40185341040462" width="62.40185341040461" class="icon-icon-0" data-fill-palette-color="accent" id="icon-0"><path d="M62.777 68.687a3 3 0 0 0-3 3v20.139a3 3 0 1 0 6 0V71.687a3 3 0 0 0-3-3M50.482 68.687a3 3 0 0 0-3 3v20.139a3 3 0 1 0 6 0V71.687a3 3 0 0 0-3-3M75.072 68.687a3 3 0 0 0-3 3v20.139a3 3 0 1 0 6 0V71.687a3 3 0 0 0-3-3M87.367 68.687a3 3 0 0 0-3 3v20.139a3 3 0 1 0 6 0V71.687a3 3 0 0 0-3-3" fill="#ff585f" data-fill-palette-color="accent"></path><path d="M69.498 11.665c-31.94 0-57.833 25.894-57.833 57.834 0 31.939 25.893 57.835 57.833 57.835s57.836-25.896 57.836-57.835c0-31.94-25.896-57.834-57.836-57.834m32.155 55.439l-4.588 27.13a4.796 4.796 0 0 1-4.796 4.796H45.58a4.796 4.796 0 0 1-4.796-4.796l-4.588-27.13c-1.776-1.43-2.938-3.595-2.938-6.051a7.793 7.793 0 0 1 7.792-7.794h0.503l11.462-16.763a3 3 0 0 1 4.953 3.387L48.822 53.26h40.206l-9.146-13.376a3 3 0 0 1 4.953-3.387L96.298 53.26h0.501a7.793 7.793 0 0 1 7.792 7.794c0 2.456-1.161 4.621-2.938 6.05" fill="#ff585f" data-fill-palette-color="accent"></path></svg></g></svg></g><g><rect width="83.01475329479769" height="4.071970723055722" y="57.3298826873489" x="237.94972670520227" fill="#ff585f" data-fill-palette-color="secondary"></rect><rect width="83.01475329479769" height="4.071970723055722" y="57.3298826873489" x="76.53311999999997" fill="#ff585f" data-fill-palette-color="secondary"></rect></g></svg></g><defs></defs></svg><rect width="395.52" height="132.28491281240412" fill="none" stroke="none" visibility="hidden"></rect></g></svg></g></svg>