<svg xmlns="http://www.w3.org/2000/svg" version="1.1" xmlns:xlink="http://www.w3.org/1999/xlink" xmlns:svgjs="http://svgjs.dev/svgjs" width="128" height="128" viewBox="0 0 128 128"><g transform="matrix(0.8046875,0,0,0.8046875,12.675156593406598,2.64647177419355)"><svg viewBox="0 0 130 155" data-background-color="#ffffff" preserveAspectRatio="xMidYMid meet" height="152" width="128" xmlns="http://www.w3.org/2000/svg" xmlns:xlink="http://www.w3.org/1999/xlink"><g id="tight-bounds" transform="matrix(1,0,0,1,-0.22107142857143458,0.25)"><svg viewBox="0 0 130.44214285714287 154.5" height="154.5" width="130.44214285714287"><g><svg viewBox="0 0 130.44214285714287 154.5" height="154.5" width="130.44214285714287"><g><svg viewBox="0 0 130.44214285714287 154.5" height="154.5" width="130.44214285714287"><g id="textblocktransform"><svg viewBox="0 0 130.44214285714287 154.5" height="154.5" width="130.44214285714287" id="textblock"><g><svg viewBox="0 0 130.44214285714287 154.5" height="154.5" width="130.44214285714287"><g transform="matrix(1,0,0,1,0,0)"><svg width="130.44214285714287" viewBox="1.85 -35 29.549999999999997 35" height="154.5" data-palette-color="#840028"><path d="M2.5-29.95L2.5-35 31.15-35 31.15-31 9.85-5.05 31.4-5.05 31.4 0 1.85 0 1.85-4 23.2-29.95 2.5-29.95Z" opacity="1" transform="matrix(1,0,0,1,0,0)" fill="#840028" class="wordmark-text-0" data-fill-palette-color="primary" id="text-0"></path></svg></g></svg></g></svg></g></svg></g><g></g></svg></g><defs></defs></svg><rect width="130.44214285714287" height="154.5" fill="none" stroke="none" visibility="hidden"></rect></g></svg></g></svg>