<svg xmlns="http://www.w3.org/2000/svg" version="1.1" xmlns:xlink="http://www.w3.org/1999/xlink" xmlns:svgjs="http://svgjs.dev/svgjs" width="128" height="128" viewBox="0 0 128 128"><g transform="matrix(0.8046875,0,0,0.8046875,12.760752631578946,12.760752631578946)"><svg viewBox="0 0 95 95" data-background-color="#ffffff" preserveAspectRatio="xMidYMid meet" height="128" width="128" xmlns="http://www.w3.org/2000/svg" xmlns:xlink="http://www.w3.org/1999/xlink"><g id="tight-bounds" transform="matrix(1,0,0,1,-0.24049999999999727,-0.24049999999999727)"><svg viewBox="0 0 95.48099999999998 95.481" height="95.481" width="95.48099999999998"><g><svg viewBox="0 0 95.48099999999998 95.481" height="95.481" width="95.48099999999998"><g><svg viewBox="0 0 95.48099999999998 95.481" height="95.481" width="95.48099999999998"><g id="textblocktransform"><svg viewBox="0 0 95.48099999999998 95.481" height="95.481" width="95.48099999999998" id="textblock"><g><svg viewBox="0 0 95.48099999999998 95.481" height="95.481" width="95.48099999999998"><g><svg viewBox="0 0 95.48099999999998 95.481" height="95.481" width="95.48099999999998"><g><svg xmlns="http://www.w3.org/2000/svg" xml:space="preserve" viewBox="11.665000000000006 11.664999999999992 115.669 115.66900000000001" x="0" y="0" height="95.481" width="95.48099999999998" class="icon-icon-0" data-fill-palette-color="accent" id="icon-0"><path d="M62.777 68.687a3 3 0 0 0-3 3v20.139a3 3 0 1 0 6 0V71.687a3 3 0 0 0-3-3M50.482 68.687a3 3 0 0 0-3 3v20.139a3 3 0 1 0 6 0V71.687a3 3 0 0 0-3-3M75.072 68.687a3 3 0 0 0-3 3v20.139a3 3 0 1 0 6 0V71.687a3 3 0 0 0-3-3M87.367 68.687a3 3 0 0 0-3 3v20.139a3 3 0 1 0 6 0V71.687a3 3 0 0 0-3-3" fill="#ff585f" data-fill-palette-color="accent"></path><path d="M69.498 11.665c-31.94 0-57.833 25.894-57.833 57.834 0 31.939 25.893 57.835 57.833 57.835s57.836-25.896 57.836-57.835c0-31.94-25.896-57.834-57.836-57.834m32.155 55.439l-4.588 27.13a4.796 4.796 0 0 1-4.796 4.796H45.58a4.796 4.796 0 0 1-4.796-4.796l-4.588-27.13c-1.776-1.43-2.938-3.595-2.938-6.051a7.793 7.793 0 0 1 7.792-7.794h0.503l11.462-16.763a3 3 0 0 1 4.953 3.387L48.822 53.26h40.206l-9.146-13.376a3 3 0 0 1 4.953-3.387L96.298 53.26h0.501a7.793 7.793 0 0 1 7.792 7.794c0 2.456-1.161 4.621-2.938 6.05" fill="#ff585f" data-fill-palette-color="accent"></path></svg></g></svg></g></svg></g></svg></g></svg></g><g></g></svg></g><defs></defs></svg><rect width="95.48099999999998" height="95.481" fill="none" stroke="none" visibility="hidden"></rect></g></svg></g></svg>