<svg width="32" height="32" viewBox="0 0 32 32" fill="none" xmlns="http://www.w3.org/2000/svg">
<path d="M23.0333 27L27.6667 22.4L26.2667 21L23.0333 24.1667L21.7333 22.8667L20.3333 24.3L23.0333 27ZM8 12H24V9.33333H8V12ZM24 30.6667C22.1556 30.6667 20.5836 30.0164 19.284 28.716C17.9844 27.4156 17.3342 25.8436 17.3333 24C17.3324 22.1564 17.9827 20.5844 19.284 19.284C20.5853 17.9836 22.1573 17.3333 24 17.3333C25.8427 17.3333 27.4151 17.9836 28.7173 19.284C30.0196 20.5844 30.6693 22.1564 30.6667 24C30.664 25.8436 30.0138 27.416 28.716 28.7173C27.4182 30.0187 25.8462 30.6684 24 30.6667ZM4 29.3333V4H28V15.5667C27.5778 15.3667 27.1444 15.2 26.7 15.0667C26.2556 14.9333 25.8 14.8333 25.3333 14.7667V6.66667H6.66667V25.4H14.7667C14.8778 26.0889 15.0502 26.7444 15.284 27.3667C15.5178 27.9889 15.8231 28.5778 16.2 29.1333L16 29.3333L14 27.3333L12 29.3333L10 27.3333L8 29.3333L6 27.3333L4 29.3333ZM8 22.6667H14.7667C14.8333 22.2 14.9333 21.7444 15.0667 21.3C15.2 20.8556 15.3667 20.4222 15.5667 20H8V22.6667ZM8 17.3333H17.4667C18.3111 16.5111 19.2947 15.8609 20.4173 15.3827C21.54 14.9044 22.7342 14.6658 24 14.6667H8V17.3333Z" fill="black"/>
</svg>
