<svg width="24" height="24" viewBox="0 0 24 24" fill="none" xmlns="http://www.w3.org/2000/svg">
<path d="M11.5568 1.0657C11.5932 0.978151 11.6547 0.903346 11.7336 0.850724C11.8125 0.798102 11.9052 0.77002 12 0.77002C12.0948 0.77002 12.1875 0.798102 12.2664 0.850724C12.3453 0.903346 12.4068 0.978151 12.4432 1.0657L15.0608 7.3601C15.0946 7.44166 15.1504 7.5123 15.2218 7.56424C15.2932 7.61618 15.3776 7.64741 15.4656 7.6545L22.2624 8.1985C22.3573 8.20578 22.4479 8.24111 22.5226 8.29999C22.5974 8.35887 22.653 8.43866 22.6823 8.5292C22.7116 8.61975 22.7134 8.71697 22.6873 8.80851C22.6613 8.90004 22.6086 8.98177 22.536 9.0433L17.36 13.4785C17.293 13.5358 17.243 13.6105 17.2156 13.6943C17.1883 13.7781 17.1845 13.8679 17.2048 13.9537L18.7888 20.5857C18.8115 20.6784 18.806 20.7757 18.7732 20.8653C18.7403 20.9549 18.6814 21.0326 18.6042 21.0886C18.5269 21.1446 18.4347 21.1762 18.3393 21.1796C18.244 21.1829 18.1498 21.1577 18.0688 21.1073L12.2512 17.5521C12.176 17.5063 12.0896 17.4821 12.0016 17.4821C11.9135 17.4821 11.8272 17.5063 11.752 17.5521L5.93279 21.1073C5.85183 21.1567 5.75805 21.181 5.66329 21.1772C5.56853 21.1733 5.47703 21.1415 5.40035 21.0857C5.32366 21.0299 5.26523 20.9526 5.23242 20.8636C5.1996 20.7746 5.19389 20.6779 5.21599 20.5857L6.79839 13.9537C6.81867 13.8679 6.81491 13.7781 6.78753 13.6943C6.76015 13.6105 6.71021 13.5358 6.64319 13.4785L1.46399 9.0433C1.39192 8.98165 1.33974 8.90004 1.31402 8.80875C1.28829 8.71747 1.29018 8.62062 1.31945 8.53041C1.34872 8.44021 1.40406 8.36069 1.47848 8.30191C1.55289 8.24312 1.64306 8.20769 1.73759 8.2001L8.53439 7.6561C8.62259 7.64887 8.70708 7.6174 8.77852 7.56517C8.84995 7.51293 8.90556 7.44196 8.93919 7.3601L11.5568 1.0657Z" fill="#FFF72F"/>
</svg>
